<?xml version="1.0" encoding="UTF-8"?>
<svg version="1.1" xmlns="http://www.w3.org/2000/svg" width="800" height="265">
<path d="M0 0 C0.79173615 0.03493561 1.58347229 0.06987122 2.39920044 0.10586548 C13.23243001 0.60140858 24.33034869 1.21876259 34.3125 5.875 C40.06692582 8.29185884 45.40896922 7.13326264 51.3125 5.6875 C59.30816325 3.90033374 65.32827411 3.48092 73.2487793 5.67993164 C82.63567126 7.85676916 92.7437853 7.34170259 102.3125 7.3125 C103.57191406 7.31636719 104.83132813 7.32023438 106.12890625 7.32421875 C112.42147312 7.31775157 118.6166218 7.12796535 124.88671875 6.58203125 C130.17158663 6.16359003 134.26594678 6.40075832 139.375 7.75 C144.91833936 9.203694 148.00637599 8.98097502 153.4375 7.1875 C158.58795569 6.63508519 162.7032211 7.01229078 167.4375 9.1875 C172.81840397 10.3610675 178.16673643 10.40555413 183.6484375 10.50390625 C184.61657379 10.52468735 185.58471008 10.54546844 186.58218384 10.56687927 C189.65888732 10.63198984 192.73567236 10.69107998 195.8125 10.75 C197.90495617 10.79322186 199.99740426 10.8368373 202.08984375 10.88085938 C207.20564669 10.98763156 212.32153125 11.08900636 217.4375 11.1875 C217.4375 13.8275 217.4375 16.4675 217.4375 19.1875 C216.4475 19.1875 215.4575 19.1875 214.4375 19.1875 C214.4375 20.1775 214.4375 21.1675 214.4375 22.1875 C207.34347002 23.29162069 200.38032823 23.31534336 193.21044922 23.28515625 C191.19646335 23.28291436 189.18247748 23.28067278 187.1684916 23.27844238 C185.01467133 23.27508336 182.8608707 23.26923218 180.70705795 23.26266479 C176.18891383 23.24903894 171.67077942 23.24322503 167.15261841 23.23852539 C156.72831812 23.22651532 146.30404326 23.20459266 135.87976074 23.18229675 C126.35605379 23.16199353 116.83235627 23.14393098 107.30863202 23.13408184 C103.56443203 23.12996826 99.82026185 23.12376883 96.07607651 23.11233521 C80.21585153 23.06436176 64.41050888 23.20232953 48.57064056 24.08381271 C43.48703736 24.33091552 38.4012029 24.33338387 33.3125 24.3125 C32.30058594 24.31636719 31.28867187 24.32023437 30.24609375 24.32421875 C22.90593436 24.31447086 22.90593436 24.31447086 20.61401367 23.6932373 C18.13022417 23.11610102 15.85481585 23.01907714 13.30517578 22.96630859 C12.28376495 22.94313568 11.26235413 22.91996277 10.20999146 22.89608765 C9.1120224 22.8762381 8.01405334 22.85638855 6.8828125 22.8359375 C5.748508 22.81278473 4.61420349 22.78963196 3.44552612 22.76577759 C1.04657378 22.71817335 -1.3524265 22.67293506 -3.75146484 22.62988281 C-7.41653326 22.56288328 -11.08126238 22.48505299 -14.74609375 22.40625 C-17.07811244 22.36132221 -19.41014348 22.31703039 -21.7421875 22.2734375 C-22.83610809 22.24953949 -23.93002869 22.22564148 -25.05709839 22.20101929 C-30.04961203 22.11907375 -34.64436661 22.22829603 -39.5625 23.1875 C-43.97755653 23.40121287 -48.39273761 23.37261094 -52.8125 23.375 C-53.98941406 23.38724609 -55.16632813 23.39949219 -56.37890625 23.41210938 C-62.60307535 23.42249453 -68.30414751 23.02956425 -74.37207031 21.64819336 C-83.78374762 19.66871999 -93.86136448 21.24218411 -103.25 22.625 C-131.84943373 26.822008 -131.84943373 26.822008 -144.8203125 22.76171875 C-149.13882744 21.85741434 -152.94951986 22.747864 -157.234375 23.5703125 C-171.92354486 26.29436043 -188.85626548 26.63217297 -203.5078125 23.52734375 C-206.83342888 23.1573583 -209.63930084 23.50417607 -212.93896484 23.93188477 C-219.34430075 24.55596691 -225.83399486 24.22123166 -232.26171875 24.1484375 C-239.15528361 24.10148927 -245.8918501 24.37668626 -252.75048828 25.09692383 C-255.58209137 25.18813105 -257.53255964 24.80764956 -260.1875 23.875 C-272.22851553 19.66161094 -285.64165361 20.0570351 -298.23461914 20.22583008 C-306.42421397 20.29259858 -314.5226092 19.79304861 -322.6875 19.1875 C-331.56256381 18.54742543 -340.41250984 17.95968426 -349.3125 17.875 C-350.11445801 17.85759766 -350.91641602 17.84019531 -351.74267578 17.82226562 C-356.95530217 17.82668404 -361.24458894 18.89684349 -366.1875 20.50415039 C-369.55629483 21.47344076 -372.69272119 21.58457229 -376.1875 21.5625 C-378.00121094 21.57410156 -378.00121094 21.57410156 -379.8515625 21.5859375 C-383.95703972 21.38629048 -387.83841689 20.52744931 -391.85546875 19.6796875 C-400.4928905 17.92472721 -408.94170505 17.79629687 -417.73022461 17.90625 C-420.28579081 17.93794387 -422.84073923 17.94729274 -425.39648438 17.953125 C-427.03907003 17.96227818 -428.68164945 17.9726485 -430.32421875 17.984375 C-431.07942307 17.98862488 -431.83462738 17.99287476 -432.61271667 17.99725342 C-436.39463802 18.04851841 -439.87412538 18.37944901 -443.5625 19.1875 C-445.03851467 19.27366453 -446.51756799 19.31803309 -447.99609375 19.3203125 C-448.81013672 19.32160156 -449.62417969 19.32289063 -450.46289062 19.32421875 C-451.30013672 19.32035156 -452.13738281 19.31648438 -453 19.3125 C-454.25006836 19.31830078 -454.25006836 19.31830078 -455.52539062 19.32421875 C-460.00688795 19.31713338 -464.13913796 18.95035254 -468.5625 18.1875 C-471.34604371 18.07026946 -474.09238679 17.99752794 -476.875 18 C-478.01255737 17.9990332 -478.01255737 17.9990332 -479.1730957 17.99804688 C-483.00294674 18.03425907 -486.52758331 18.19719669 -490.25 19.1875 C-505.16213399 23.05568513 -523.95688213 19.07325962 -538.5625 15.1875 C-538.5625 14.1975 -538.5625 13.2075 -538.5625 12.1875 C-523.30233209 6.07722952 -506.76694296 5.12583716 -490.5625 3.4375 C-489.56334564 3.33089554 -489.56334564 3.33089554 -488.54400635 3.22213745 C-486.63430706 3.020544 -484.72341249 2.83037421 -482.8125 2.640625 C-481.70390625 2.52879883 -480.5953125 2.41697266 -479.453125 2.30175781 C-476.77327699 2.19583139 -475.11461511 2.54714306 -472.5625 3.1875 C-469.74155704 3.29509366 -466.94613233 3.35121197 -464.125 3.35546875 C-463.2961882 3.35952225 -462.4673764 3.36357574 -461.6134491 3.36775208 C-458.92976013 3.37720306 -456.24620334 3.37714976 -453.5625 3.375 C-452.65400299 3.3757251 -451.74550598 3.3764502 -450.80947876 3.37719727 C-439.22019865 3.37616972 -427.82795267 3.08385185 -416.31640625 1.640625 C-404.37106427 0.19873148 -404.37106427 0.19873148 -398.7109375 2.19140625 C-395.14534679 3.31947775 -392.29879855 3.41853738 -388.5625 3.375 C-387.89114014 3.36927979 -387.21978027 3.36355957 -386.52807617 3.35766602 C-379.35072093 3.26007528 -372.17832304 2.87945417 -365.01367188 2.45581055 C-364.11841797 2.407229 -363.22316406 2.35864746 -362.30078125 2.30859375 C-361.50712158 2.2614624 -360.71346191 2.21433105 -359.89575195 2.16577148 C-357.5625 2.1875 -357.5625 2.1875 -355.08935547 2.68530273 C-352.41230339 3.21735067 -350.11715929 3.22859337 -347.39453125 3.1015625 C-346.41806641 3.05773437 -345.44160156 3.01390625 -344.43554688 2.96875 C-343.42556641 2.9171875 -342.41558594 2.865625 -341.375 2.8125 C-339.8890332 2.74675781 -339.8890332 2.74675781 -338.37304688 2.6796875 C-332.80852632 2.41696915 -327.29222396 1.9831681 -321.75317383 1.39697266 C-318.99621271 1.1333515 -316.26892951 1.05471117 -313.5 1.0625 C-312.12134766 1.05863281 -312.12134766 1.05863281 -310.71484375 1.0546875 C-308.24439174 1.15877098 -305.89962062 1.37882354 -303.453125 1.6875 C-297.7610173 2.35143077 -292.09963818 2.336431 -286.375 2.3125 C-285.23514648 2.31056641 -284.09529297 2.30863281 -282.92089844 2.30664062 C-275.70582885 2.2705151 -268.51738985 2.06157615 -261.3125 1.6875 C-245.94662267 0.89144151 -230.60457526 0.77695388 -215.25732422 2.00732422 C-214.49436035 2.05904785 -213.73139648 2.11077148 -212.9453125 2.1640625 C-212.28934082 2.21643066 -211.63336914 2.26879883 -210.95751953 2.32275391 C-208.37473749 2.27053358 -208.37473749 2.27053358 -205.27905273 1.19897461 C-198.58593505 -0.55442607 -191.5808856 -0.03527526 -184.71484375 0.02734375 C-183.12720123 0.03399001 -181.53955401 0.03958481 -179.9519043 0.04420471 C-176.5660229 0.05552483 -173.18023593 0.07239234 -169.79440308 0.09375 C-160.83177324 0.14924544 -151.8690208 0.16614617 -142.90625 0.18359375 C-142.0019972 0.18563686 -141.09774441 0.18767998 -140.16609001 0.189785 C-122.60580751 0.22661079 -105.05687361 0.01322291 -87.5 -0.3125 C-82.39585086 -0.40334568 -77.29167717 -0.49277503 -72.1875 -0.58203125 C-70.40514954 -0.61336151 -70.40514954 -0.61336151 -68.58679199 -0.64532471 C-45.69043892 -1.041529 -22.87843147 -1.09358863 0 0 Z " fill="#FDC600" transform="translate(554.5625,165.8125)"/>
<path d="M0 0 C10.56 0 21.12 0 32 0 C31.56429539 25.05301489 30.95153945 50.0134774 29 75 C29.43530029 74.09797852 29.43530029 74.09797852 29.87939453 73.17773438 C36.51771039 59.49251134 43.62023574 46.23034119 51.3828125 33.15234375 C55.93316563 25.47159701 60.24957415 17.66229719 64.55810547 9.84399414 C65.11127441 8.8461792 65.66444336 7.84836426 66.234375 6.8203125 C66.72131836 5.93617676 67.20826172 5.05204102 67.70996094 4.14111328 C69 2 69 2 71 0 C73.50920846 -0.17495606 75.90624941 -0.23169569 78.4140625 -0.1953125 C79.14370209 -0.1924826 79.87334167 -0.18965271 80.62509155 -0.18673706 C82.95856028 -0.17553002 85.29164703 -0.1504251 87.625 -0.125 C89.20572363 -0.11497085 90.78645327 -0.10584489 92.3671875 -0.09765625 C96.24493914 -0.07558905 100.12240478 -0.04105615 104 0 C103.62801096 7.71171469 103.25425585 15.42334169 102.87835789 23.13486671 C102.70379287 26.71714981 102.5297951 30.29945842 102.35717773 33.88183594 C102.19000133 37.35083218 102.02122524 40.8197475 101.85142326 44.28861618 C101.75677711 46.23017022 101.66371082 48.17180106 101.57069397 50.11343384 C101.16235252 58.41963286 100.62632634 66.70747707 100 75 C100.32807648 74.32742661 100.65615295 73.65485321 100.99417114 72.9618988 C107.957535 58.70468151 115.35795847 44.79589708 123.26318359 31.04150391 C127.0641935 24.38519502 130.77758833 17.67907807 134.50732422 10.98266602 C135.34481201 9.48304321 135.34481201 9.48304321 136.19921875 7.953125 C136.69252686 7.06786133 137.18583496 6.18259766 137.6940918 5.27050781 C138.72805866 3.47280884 139.84964098 1.72553853 141 0 C143.48340903 -0.26727014 145.71472068 -0.34866334 148.1953125 -0.29296875 C149.25647781 -0.28660149 149.25647781 -0.28660149 150.33908081 -0.28010559 C152.60143905 -0.26329547 154.86291048 -0.22564128 157.125 -0.1875 C158.65753923 -0.17245607 160.1900924 -0.15876716 161.72265625 -0.14648438 C165.48211318 -0.11338462 169.24090618 -0.06158825 173 0 C169.89838546 6.39718359 166.58637024 12.56320427 162.875 18.625 C161.81551529 20.37315825 160.75699137 22.12189902 159.69921875 23.87109375 C159.11575684 24.83515137 158.53229492 25.79920898 157.93115234 26.79248047 C154.56498837 32.38346179 151.24256045 38.00038652 147.91574097 43.61483765 C141.15199921 55.02868337 134.35998098 66.42454182 127.51928711 77.79248047 C124.19796698 83.31763348 120.89755148 88.85441854 117.62109375 94.40625 C117.25498489 95.02618332 116.88887604 95.64611664 116.51167297 96.28483582 C114.73420516 99.29522928 112.95933351 102.3071028 111.1887207 105.3215332 C110.55409912 106.39749756 109.91947754 107.47346191 109.265625 108.58203125 C108.70649414 109.53311768 108.14736328 110.4842041 107.57128906 111.46411133 C107.05276367 112.30095459 106.53423828 113.13779785 106 114 C105.59257568 114.76368896 105.18515137 115.52737793 104.76538086 116.31420898 C102.48990018 118.48710265 100.69825775 118.45459017 97.6287384 118.45318604 C96.92238754 118.43254089 96.21603668 118.41189575 95.48828125 118.390625 C94.76005661 118.38496521 94.03183197 118.37930542 93.28153992 118.37347412 C90.95785502 118.35110029 88.63571793 118.30090669 86.3125 118.25 C84.73635041 118.22993609 83.16017663 118.21168512 81.58398438 118.1953125 C77.72206076 118.15123283 73.8612927 118.08220225 70 118 C70.49057675 93.29367748 71.40548034 68.66051147 73 44 C72.64397705 44.72775635 72.2879541 45.4555127 71.92114258 46.20532227 C64.73574774 60.84845138 57.33113818 75.26204514 49.1953125 89.40625 C45.23739374 96.29043729 41.46305978 103.27296289 37.69287109 110.26123047 C37.22187988 111.13150879 36.75088867 112.00178711 36.265625 112.8984375 C35.85086914 113.66849121 35.43611328 114.43854492 35.00878906 115.23193359 C34 117 34 117 33 118 C30.47931819 118.08846834 27.98545583 118.11534524 25.46484375 118.09765625 C24.46378601 118.09614563 24.46378601 118.09614563 23.44250488 118.09460449 C20.94079544 118.08935803 18.43918249 118.07543263 15.9375 118.0625 C12.91609987 118.05055022 9.89469546 118.03984783 6.87329102 118.02905273 C5.37223809 118.02353349 3.87118522 118.01799605 2.37013245 118.01243591 C0.70191689 118.00628014 0.70191689 118.00628014 -1 118 C-1.07727047 92.50133813 -0.87510587 67.01227565 -0.53643799 41.51599121 C-0.47441109 36.80755752 -0.41507756 32.09908981 -0.35546875 27.390625 C-0.2395079 18.26038246 -0.12048818 9.13018392 0 0 Z " fill="#FFFFFF" transform="translate(198,27)"/>
<path d="M0 0 C6.94876506 6.43458583 10.42371894 14.77584593 11.24609375 24.17578125 C11.75830562 47.17493394 3.1161975 69.66866841 -12.72802734 86.44042969 C-18.60132091 92.43190852 -24.64202631 97.37831066 -32.08984375 101.3359375 C-33.10691406 101.87863281 -34.12398438 102.42132813 -35.171875 102.98046875 C-52.92660239 111.80416035 -76.36592909 113.92431855 -95.54296875 108.30078125 C-105.39521973 104.5684101 -112.7314375 98.64744799 -117.46484375 89.0234375 C-123.82192997 72.69278934 -120.99725771 54.99439792 -114.20117188 39.28125 C-110.24994659 30.83663547 -105.36097855 23.25741221 -99.08984375 16.3359375 C-98.3525 15.50578125 -97.61515625 14.675625 -96.85546875 13.8203125 C-74.25428769 -10.25806994 -27.89397863 -22.21090635 0 0 Z M-72.08984375 23.3359375 C-83.44160781 39.616757 -89.96426216 60.50197524 -88.08984375 80.3359375 C-87.16615725 84.1661575 -85.56674754 86.23984971 -82.34765625 88.62890625 C-74.69760577 92.8580851 -65.29474913 92.43410106 -56.9609375 90.67578125 C-45.74019073 87.07078472 -39.55911171 79.44892353 -34.08984375 69.3359375 C-26.98562095 55.12749191 -20.67162289 37.43537057 -22.08984375 21.3359375 C-23.84949517 16.15474166 -26.61800306 13.43182721 -31.08984375 10.3359375 C-46.20915209 4.34526816 -62.26025135 11.22766686 -72.08984375 23.3359375 Z " fill="#FFFFFF" transform="translate(474.08984375,35.6640625)"/>
<path d="M0 0 C0.71948318 -0.00150055 1.43896637 -0.0030011 2.18025208 -0.00454712 C4.55251442 -0.00692352 6.92462748 -0.00060151 9.296875 0.0078125 C10.50704788 0.01113586 10.50704788 0.01113586 11.7416687 0.01452637 C17.5103 0.0331088 23.27849052 0.07749659 29.046875 0.1328125 C29.78343323 0.1390564 30.51999146 0.14530029 31.27886963 0.1517334 C35.89012888 0.19307581 40.49906259 0.27628957 45.109375 0.3828125 C46.25889648 0.39683105 47.40841797 0.41084961 48.59277344 0.42529297 C58.86441758 0.73061691 67.93079546 2.96733327 75.453125 10.3046875 C80.53067696 16.12893827 80.64039698 21.98997762 80.45703125 29.5 C79.08528489 41.64975344 71.60145889 51.8023377 62.41796875 59.5 C55.60722229 64.19010218 47.9511655 66.92452756 40.046875 69.1328125 C40.53736328 69.94983643 41.02785156 70.76686035 41.53320312 71.60864258 C46.52716156 80.05860684 50.7544523 88.6833239 54.63183594 97.69604492 C55.56451543 99.86126485 56.51190799 102.01963738 57.4609375 104.17773438 C58.06335718 105.56212731 58.6649526 106.94687929 59.265625 108.33203125 C59.54676147 108.97258957 59.82789795 109.61314789 60.11755371 110.27311707 C61.31807768 113.08136346 62.046875 115.04173001 62.046875 118.1328125 C50.496875 118.1328125 38.946875 118.1328125 27.046875 118.1328125 C20.34491169 102.49489811 20.34491169 102.49489811 18.1953125 97.03515625 C17.73640625 95.88466797 17.2775 94.73417969 16.8046875 93.54882812 C15.86967551 91.19677113 14.94013102 88.84253443 14.015625 86.48632812 C13.33113281 84.77799805 13.33113281 84.77799805 12.6328125 83.03515625 C12.2311084 82.01929443 11.8294043 81.00343262 11.41552734 79.95678711 C9.39284397 75.78333391 7.54964445 72.85004337 3.296875 70.8203125 C2.554375 70.5934375 1.811875 70.3665625 1.046875 70.1328125 C0.89629639 70.7815332 0.74571777 71.43025391 0.59057617 72.09863281 C-1.74694445 81.82019781 -4.68974584 91.33479312 -7.640625 100.8828125 C-8.15718776 102.56241185 -8.67346585 104.24209877 -9.18945312 105.921875 C-10.44021456 109.99337451 -11.69677813 114.06301651 -12.953125 118.1328125 C-22.853125 118.1328125 -32.753125 118.1328125 -42.953125 118.1328125 C-36.21511623 94.7369487 -29.268338 71.41019979 -22.22070312 48.10595703 C-20.72337208 43.15425335 -19.23062931 38.20117822 -17.73888397 33.24778938 C-16.57954932 29.40061047 -15.41734278 25.55430378 -14.25428772 21.70824814 C-13.70144135 19.87843489 -13.1496246 18.04831024 -12.59886169 16.2178688 C-11.83910103 13.69396563 -11.07536153 11.17130126 -10.31054688 8.64892578 C-10.08516235 7.89705994 -9.85977783 7.14519409 -9.62756348 6.37054443 C-7.59461621 -0.30522819 -6.97164786 0.0059645 0 0 Z M16.046875 20.1328125 C14.7615259 24.22511487 13.47987392 28.31855084 12.20166016 32.41308594 C11.76615626 33.80630869 11.32963737 35.19921458 10.89208984 36.59179688 C10.26393837 38.59162607 9.63942636 40.59256027 9.015625 42.59375 C8.63857422 43.79821777 8.26152344 45.00268555 7.87304688 46.24365234 C6.95522976 48.95247276 6.95522976 48.95247276 7.046875 51.1328125 C10.02629498 51.18736953 13.00469031 51.22675101 15.984375 51.2578125 C16.81517578 51.27457031 17.64597656 51.29132813 18.50195312 51.30859375 C26.88480633 51.37382996 34.37281746 50.59340504 41.046875 45.1328125 C45.18723398 40.95795052 47.61483177 37.03367417 48.484375 31.1953125 C48.01266383 27.89333434 47.13317506 25.83653923 44.828125 23.390625 C37.3398817 18.10287425 24.74997452 19.96938582 16.046875 20.1328125 Z " fill="#FFFFFF" transform="translate(524.953125,25.8671875)"/>
<path d="M0 0 C6.29475013 -0.02563852 12.58948648 -0.04298616 18.88427734 -0.05493164 C21.01969913 -0.05991869 23.15511758 -0.06671072 25.29052734 -0.07543945 C69.19799513 -0.2502467 69.19799513 -0.2502467 82 11 C90.02685449 19.66194627 92.34436204 28.9658854 92.21484375 40.59375 C90.78189212 63.31254679 80.01925063 84.48145506 63.1171875 99.57421875 C49.85232433 109.99155796 34.08214217 117.15083437 16.99462891 117.11352539 C15.83387848 117.11344986 14.67312805 117.11337433 13.47720337 117.11329651 C12.23949188 117.10813522 11.0017804 117.10297394 9.7265625 117.09765625 C8.44768158 117.0962413 7.16880066 117.09482635 5.85116577 117.09336853 C2.46788664 117.08873022 -0.91532386 117.07976081 -4.29858398 117.06866455 C-7.75764374 117.05839515 -11.21671061 117.05385911 -14.67578125 117.04882812 C-21.45053966 117.03781609 -28.22526587 117.02109064 -35 117 C-32.70881793 107.28945057 -29.89590456 97.76221857 -26.9921875 88.22265625 C-26.50214452 86.60540996 -26.01233237 84.98809371 -25.5227356 83.37071228 C-24.49739345 79.98561605 -23.47017101 76.60109863 -22.44140625 73.21704102 C-21.15143499 68.97369072 -19.86474354 64.72935592 -18.57931137 60.48462868 C-12.46566171 40.29817281 -6.2870037 20.1331839 0 0 Z M25 20 C22.58437209 26.22594429 20.5427608 32.51403363 18.6015625 38.90234375 C18.1263063 40.45629601 18.1263063 40.45629601 17.64144897 42.04164124 C16.97299713 44.22897781 16.30575272 46.41668371 15.63964844 48.60473633 C14.63738991 51.89680349 13.63154446 55.18775666 12.625 58.47851562 C10.73953937 64.64919354 8.86695073 70.82369976 7 77 C6.72957886 77.89164856 6.45915771 78.78329712 6.18054199 79.70196533 C5.45687163 82.09291771 4.73895999 84.48550491 4.0234375 86.87890625 C3.8142569 87.56822739 3.60507629 88.25754852 3.38955688 88.96775818 C2.56020082 91.76470843 2 94.06269858 2 97 C21.29003493 98.01022252 21.29003493 98.01022252 38.25 89.875 C51.5458015 76.93122583 58.53256233 56.44576648 59.08984375 38.03125 C58.76077553 32.42865269 57.45939347 28.43511984 54 24 C48.03500735 19.63652466 42.15463334 19.49342005 35 19.75 C34.03449219 19.76804687 33.06898438 19.78609375 32.07421875 19.8046875 C29.71507967 19.85140313 27.35808925 19.91687863 25 20 Z " fill="#FFFFFF" transform="translate(636,27)"/>
<path d="M0 0 C0 3 0 3 -1.43359375 4.54296875 C-2.42552734 5.35701172 -2.42552734 5.35701172 -3.4375 6.1875 C-5.8172712 8.15449673 -8.1139687 10.11128708 -10.32421875 12.26953125 C-11.08347656 13.00558594 -11.84273438 13.74164063 -12.625 14.5 C-13.66527344 15.53640625 -13.66527344 15.53640625 -14.7265625 16.59375 C-17 18 -17 18 -19.890625 17.875 C-23.10933771 16.9692316 -26.06485648 15.84615009 -29.125 14.5 C-38.74823949 10.28830231 -49.68189724 9.25125856 -60.0078125 11.71875 C-65.05626185 13.84081007 -69.49447007 16.98894014 -72 22 C-72.4167552 24.95788569 -72.4167552 24.95788569 -72 28 C-68.56350831 31.60056821 -63.91352308 32.2575913 -59.25 33.375 C-57.53843312 33.80872176 -55.82750327 34.24496438 -54.1171875 34.68359375 C-53.25963867 34.90257324 -52.40208984 35.12155273 -51.51855469 35.34716797 C-26.2550447 41.89569702 -26.2550447 41.89569702 -20 52 C-16.03354038 59.98465566 -16.23052066 67.06645484 -18.953125 75.4140625 C-24.75634789 89.7488892 -35.58110834 99.58081931 -49.609375 105.61450195 C-56.88260635 108.54013672 -64.28520337 110.60488158 -72 112 C-73.07701172 112.19722656 -73.07701172 112.19722656 -74.17578125 112.3984375 C-94.3511053 115.2974161 -117.85659051 112.69733955 -136 103 C-135.41333 99.70403035 -134.40561405 98.01501264 -132.09375 95.6171875 C-131.51496094 95.00746094 -130.93617188 94.39773437 -130.33984375 93.76953125 C-129.42912109 92.83173828 -129.42912109 92.83173828 -128.5 91.875 C-127.30017331 90.62422526 -126.1021666 89.37170136 -124.90625 88.1171875 C-124.37322266 87.56659668 -123.84019531 87.01600586 -123.29101562 86.44873047 C-121.89669353 85.01104034 -121.89669353 85.01104034 -121 83 C-115.86592481 83.84617165 -111.34294156 85.78672509 -106.546875 87.74609375 C-93.7041977 92.28629134 -76.7105951 93.9169614 -64.03125 88.19921875 C-59.00512174 85.23186995 -55.97020695 81.47279707 -54 76 C-53.58650231 72.39418221 -53.58650231 72.39418221 -55 69 C-60.83049365 63.54277217 -68.85739871 62.22278363 -76.375 60.5 C-98.18336557 55.46915187 -98.18336557 55.46915187 -105 47 C-109.2896449 39.62684507 -109.21267447 32.00381336 -107.2265625 23.80859375 C-102.28129178 10.35815884 -91.62256881 1.49790573 -78.94140625 -4.4296875 C-55.19589277 -14.25341278 -21.88760775 -15.43155079 0 0 Z " fill="#FFFFFF" transform="translate(184,34)"/>
<path d="M0 0 C3.83625 -0.12375 3.83625 -0.12375 7.75 -0.25 C8.54889648 -0.28641602 9.34779297 -0.32283203 10.17089844 -0.36035156 C13.68126797 -0.41517345 15.62909851 -0.27351069 18.484375 1.83203125 C20.56258747 4.80473207 20.5810114 6.44130515 20 10 C18 12.875 18 12.875 16 15 C17.65 16.65 19.3 18.3 21 20 C23.64 13.4 26.28 6.8 29 0 C31.64 0 34.28 0 37 0 C46 17 46 17 46 24 C43.69 24 41.38 24 39 24 C38.34 22.02 37.68 20.04 37 18 C34.36 18 31.72 18 29 18 C28.67 19.98 28.34 21.96 28 24 C15.56053812 25.22690583 15.56053812 25.22690583 11.734375 22.21875 C10.27131941 20.2017219 9.0566809 18.25425259 8 16 C7.67 18.64 7.34 21.28 7 24 C4.69 24 2.38 24 0 24 C0 16.08 0 8.16 0 0 Z M7 4 C7 5.98 7 7.96 7 10 C8.65 9.67 10.3 9.34 12 9 C12 7.68 12 6.36 12 5 C10.35 4.67 8.7 4.34 7 4 Z M33 8 C32.34 9.98 31.68 11.96 31 14 C32.32 14 33.64 14 35 14 C34.67 12.02 34.34 10.04 34 8 C33.67 8 33.34 8 33 8 Z " fill="#FFFFFF" transform="translate(230,211)"/>
<path d="M0 0 C0.85464844 -0.01417969 1.70929687 -0.02835938 2.58984375 -0.04296875 C5.20159303 0.20046444 6.81750652 0.8696732 9.0625 2.1875 C8.0625 5.1875 8.0625 5.1875 6.125 6.4375 C5.444375 6.685 4.76375 6.9325 4.0625 7.1875 C3.4025 6.8575 2.7425 6.5275 2.0625 6.1875 C0.06289988 6.147508 -1.93797242 6.14403201 -3.9375 6.1875 C-4.2675 6.8475 -4.5975 7.5075 -4.9375 8.1875 C-1.9675 9.1775 1.0025 10.1675 4.0625 11.1875 C5.52230707 17.39168006 5.52230707 17.39168006 3.4375 21 C-0.88745078 24.9835073 -4.73756196 25.4326899 -10.5 25.3125 C-11.61503906 25.29445312 -12.73007812 25.27640625 -13.87890625 25.2578125 C-14.88824219 25.23460937 -15.89757812 25.21140625 -16.9375 25.1875 C-18.2575 25.1875 -19.5775 25.1875 -20.9375 25.1875 C-26.9375 25.1875 -32.9375 25.1875 -38.9375 25.1875 C-36.89524181 16.90224115 -34.09177031 9.11580104 -30.9375 1.1875 C-24.9975 1.1875 -19.0575 1.1875 -12.9375 1.1875 C-13.5975 2.5075 -14.2575 3.8275 -14.9375 5.1875 C-17.3203125 5.796875 -17.3203125 5.796875 -20.0625 5.9375 C-20.97257813 5.99421875 -21.88265625 6.0509375 -22.8203125 6.109375 C-23.51898437 6.13515625 -24.21765625 6.1609375 -24.9375 6.1875 C-25.2675 7.1775 -25.5975 8.1675 -25.9375 9.1875 C-23.6275 9.5175 -21.3175 9.8475 -18.9375 10.1875 C-19.2675 11.8375 -19.5975 13.4875 -19.9375 15.1875 C-22.9075 15.1875 -25.8775 15.1875 -28.9375 15.1875 C-29.2675 16.8375 -29.5975 18.4875 -29.9375 20.1875 C-29.23882813 20.1875 -28.54015625 20.1875 -27.8203125 20.1875 C-24.52604167 20.1875 -21.23177083 20.1875 -17.9375 20.1875 C-17.36 20.001875 -16.7825 19.81625 -16.1875 19.625 C-13.9375 19.1875 -13.9375 19.1875 -10.9375 19.75 C-7.70875118 20.2208592 -6.6099521 19.93487253 -3.9375 18.1875 C-6.58146764 15.54353236 -9.51253819 14.61975676 -12.9375 13.1875 C-13.2675 12.8575 -13.5975 12.5275 -13.9375 12.1875 C-13.77773937 7.95384335 -13.61061615 5.86061615 -10.5625 2.8125 C-6.92664321 0.56173151 -4.19923707 0.03157321 0 0 Z " fill="#FFFFFF" transform="translate(591.9375,209.8125)"/>
<path d="M0 0 C2.76375 -0.04125 5.5275 -0.0825 8.375 -0.125 C9.24431152 -0.14320801 10.11362305 -0.16141602 11.00927734 -0.18017578 C13.00703478 -0.19473738 15.00467217 -0.09956726 17 0 C19 2 19 2 19.25 4.4375 C19 7 19 7 17 10 C16.34 10 15.68 10 15 10 C15.33 10.66 15.66 11.32 16 12 C16.375 15.375 16.375 15.375 16 19 C12.43995597 22.56004403 10.1121637 23.9722514 5.0859375 24.09765625 C3.5155917 24.09193315 1.94527012 24.0789449 0.375 24.0625 C-2.38875 24.041875 -5.1525 24.02125 -8 24 C-5.36 16.08 -2.72 8.16 0 0 Z M6 5 C5.67 6.32 5.34 7.64 5 9 C6.98 8.67 8.96 8.34 11 8 C11 7.01 11 6.02 11 5 C9.35 5 7.7 5 6 5 Z M3 14 C2.34 15.65 1.68 17.3 1 19 C4.465 18.505 4.465 18.505 8 18 C8.33 17.01 8.66 16.02 9 15 C7.93354885 13.70366379 7.93354885 13.70366379 5.4375 13.9375 C4.633125 13.958125 3.82875 13.97875 3 14 Z " fill="#FFFFFF" transform="translate(451,211)"/>
<path d="M0 0 C2.64 0 5.28 0 8 0 C9.31626692 3.61973402 10 6.09567131 10 10 C10.66 10 11.32 10 12 10 C12.13277344 9.36191406 12.26554688 8.72382813 12.40234375 8.06640625 C12.57894531 7.24011719 12.75554688 6.41382813 12.9375 5.5625 C13.19853516 4.32693359 13.19853516 4.32693359 13.46484375 3.06640625 C14 1 14 1 15 0 C17.31 0 19.62 0 22 0 C19.36 7.92 16.72 15.84 14 24 C11.36 24 8.72 24 6 24 C5.34 20.7 4.68 17.4 4 14 C2.46478044 16.30282933 1.41642091 18.17862235 0.375 20.6875 C-0.305625 22.3271875 -0.305625 22.3271875 -1 24 C-2.98 24 -4.96 24 -7 24 C-6.40531984 18.33171945 -4.90757199 13.39677846 -2.9375 8.0625 C-2.65583984 7.28326172 -2.37417969 6.50402344 -2.08398438 5.70117188 C-1.39532294 3.79859875 -0.69850097 1.89898275 0 0 Z " fill="#FFFFFF" transform="translate(535,211)"/>
<path d="M0 0 C2.5625 1.625 2.5625 1.625 4 4 C4.67747063 9.226202 3.79194962 12.57139025 1 17 C-2.62012391 21.08424236 -5.39976226 23.7312506 -10.91015625 24.30078125 C-12.47056641 24.30658203 -12.47056641 24.30658203 -14.0625 24.3125 C-15.10535156 24.32925781 -16.14820313 24.34601563 -17.22265625 24.36328125 C-20 24 -20 24 -21.81640625 22.6484375 C-23.67184311 20.06429772 -23.88008978 18.17762076 -24 15 C-22.77960847 9.44286002 -20.50029333 5.57977879 -16 2 C-10.51180986 -1.16626354 -6.02510614 -1.68656446 0 0 Z M-11.6875 5.625 C-15.05035948 9.07874757 -15.9439198 11.51387462 -16.125 16.3125 C-16.08375 17.199375 -16.0425 18.08625 -16 19 C-13.75124253 19.86850174 -13.75124253 19.86850174 -11 20 C-7.08423575 17.63232859 -5.15894689 15.42506995 -4 11 C-3.83242243 7.79129767 -3.83242243 7.79129767 -4 5 C-7.41676331 3.8285383 -8.52824669 3.71475381 -11.6875 5.625 Z " fill="#FFFFFF" transform="translate(379,211)"/>
<path d="M0 0 C1.1127832 -0.01836914 1.1127832 -0.01836914 2.24804688 -0.03710938 C4.18763629 -0.04238478 6.1267371 0.06561098 8.0625 0.1875 C10.0625 2.1875 10.0625 2.1875 10.4375 5 C9.9771132 8.91328781 8.7789999 10.39338581 6.0625 13.1875 C5.0725 13.8475 4.0825 14.5075 3.0625 15.1875 C4.5475 19.6425 4.5475 19.6425 6.0625 24.1875 C3.4225 24.1875 0.7825 24.1875 -1.9375 24.1875 C-3.2575 21.5475 -4.5775 18.9075 -5.9375 16.1875 C-6.9275 18.8275 -7.9175 21.4675 -8.9375 24.1875 C-11.2475 24.1875 -13.5575 24.1875 -15.9375 24.1875 C-15.27081575 18.96236219 -13.71756593 14.29956918 -11.9375 9.375 C-11.66421875 8.59962891 -11.3909375 7.82425781 -11.109375 7.02539062 C-8.5166601 -0.23802391 -7.37350028 0.00637295 0 0 Z M-2.9375 4.1875 C-3.2675 6.1675 -3.5975 8.1475 -3.9375 10.1875 C-1.49269921 9.99921228 -1.49269921 9.99921228 1.0625 9.1875 C2.42270151 7.21991727 2.42270151 7.21991727 3.0625 5.1875 C0.0925 4.6925 0.0925 4.6925 -2.9375 4.1875 Z " fill="#FFFFFF" transform="translate(421.9375,210.8125)"/>
<path d="M0 0 C3.5578125 -0.0928125 3.5578125 -0.0928125 7.1875 -0.1875 C8.29387817 -0.22846802 8.29387817 -0.22846802 9.42260742 -0.27026367 C13.83046765 -0.32562235 16.56743764 0.20751325 20 3 C22.88151893 7.22155661 22.77372581 12.08684111 22 17 C20.11299112 20.62160551 17.93196733 22.68934422 14 24 C9.33032246 24.13590447 4.67262015 24.04286807 0 24 C0 16.08 0 8.16 0 0 Z M7 4 C7 8.95 7 13.9 7 19 C11.74947126 19.52057921 11.74947126 19.52057921 13.875 17.5 C15.51279743 13.86045016 15.33031775 10.75197401 14 7 C11.56990326 5.00607447 10.16090285 4 7 4 Z " fill="#FFFFFF" transform="translate(277,211)"/>
<path d="M0 0 C1.8046875 1.55078125 1.8046875 1.55078125 3 3 C1.78125 4.53125 1.78125 4.53125 0 6 C-2.38098831 5.96549292 -4.51212778 5.49757444 -6.84375 5.03125 C-9.06106667 4.79109488 -9.06106667 4.79109488 -10.765625 6.21484375 C-12.95170037 9.37635148 -12.23854465 12.24292182 -12 16 C-11.67 16.66 -11.34 17.32 -11 18 C-7.97065509 18.65772428 -7.97065509 18.65772428 -5 19 C-4.67 17.68 -4.34 16.36 -4 15 C-5.65 14.67 -7.3 14.34 -9 14 C-9 12.68 -9 11.36 -9 10 C-5.04 10 -1.08 10 3 10 C3 13.96 3 17.92 3 22 C-0.96485956 23.98242978 -2.65003617 24.29628009 -6.9375 24.3125 C-7.95714844 24.32925781 -8.97679687 24.34601563 -10.02734375 24.36328125 C-13.45778245 23.9440555 -15.27146596 23.10215753 -18 21 C-21.06924473 16.58737763 -20.74728427 11.1394857 -20 6 C-14.88936562 -1.15488813 -8.16858151 -2.06291296 0 0 Z " fill="#FFFFFF" transform="translate(224,211)"/>
<path d="M0 0 C2.31 0 4.62 0 7 0 C5.64746536 6.45054982 3.96939767 12.71105679 2 19 C4.88974136 19.22375364 4.88974136 19.22375364 8 18 C9.83328672 15.1816521 10.81549271 12.11361389 11.875 8.9375 C12.18179687 8.08349609 12.48859375 7.22949219 12.8046875 6.34960938 C13.55900205 4.23988586 14.28932338 2.12473923 15 0 C17.31 0 19.62 0 22 0 C21.24760618 4.56810535 19.81499288 8.78570157 18.25 13.125 C17.89035156 14.19814453 17.89035156 14.19814453 17.5234375 15.29296875 C16.31066319 18.63747521 15.44813963 20.61456933 12.7109375 22.96875 C9.45163012 24.2086018 6.85894588 24.39902721 3.375 24.375 C2.24835938 24.38273437 1.12171875 24.39046875 -0.0390625 24.3984375 C-3 24 -3 24 -4.9609375 22.9140625 C-6.66346031 19.77783626 -5.76408983 17.4049533 -5 14 C-4.20526578 11.50114715 -3.35051042 9.02060497 -2.4375 6.5625 C-1.98246094 5.32628906 -1.52742188 4.09007812 -1.05859375 2.81640625 C-0.70925781 1.88699219 -0.35992187 0.95757812 0 0 Z " fill="#FFFFFF" transform="translate(474,211)"/>
<path d="M0 0 C2.31 0 4.62 0 7 0 C5.64746536 6.45054982 3.96939767 12.71105679 2 19 C4.88974136 19.22375364 4.88974136 19.22375364 8 18 C9.83328672 15.1816521 10.81549271 12.11361389 11.875 8.9375 C12.18179687 8.08349609 12.48859375 7.22949219 12.8046875 6.34960938 C13.55900205 4.23988586 14.28932338 2.12473923 15 0 C17.31 0 19.62 0 22 0 C18.70022394 17.9987785 18.70022394 17.9987785 12.74609375 22.828125 C9.45027042 24.23459299 6.95122356 24.39966361 3.375 24.375 C2.24835938 24.38273437 1.12171875 24.39046875 -0.0390625 24.3984375 C-3 24 -3 24 -4.93359375 22.72265625 C-6 21 -6 21 -5.4375 17.0625 C-3.92184144 11.28583906 -1.96476746 5.63678431 0 0 Z " fill="#FFFFFF" transform="translate(388,211)"/>
<path d="M0 0 C0.55945313 0.32355469 1.11890625 0.64710938 1.6953125 0.98046875 C0.8828125 2.91796875 0.8828125 2.91796875 -0.3046875 4.98046875 C-4.01205286 6.2162572 -6.48696679 5.60518669 -10.3046875 4.98046875 C-10.9646875 4.98046875 -11.6246875 4.98046875 -12.3046875 4.98046875 C-10.95164541 7.68655292 -9.49502206 7.94229922 -6.7421875 9.10546875 C-5.91589844 9.45867187 -5.08960938 9.811875 -4.23828125 10.17578125 C-3.60019531 10.44132813 -2.96210937 10.706875 -2.3046875 10.98046875 C-1.9296875 14.16796875 -1.9296875 14.16796875 -2.3046875 17.98046875 C-4.49573938 20.65165854 -7.2166028 22.4364264 -10.3046875 23.98046875 C-12.61389953 24.12926556 -14.9283639 24.20181459 -17.2421875 24.23046875 C-19.11197266 24.26914063 -19.11197266 24.26914063 -21.01953125 24.30859375 C-24.3046875 23.98046875 -24.3046875 23.98046875 -26.24609375 22.46484375 C-26.59542969 21.975 -26.94476563 21.48515625 -27.3046875 20.98046875 C-26.078125 19.45703125 -26.078125 19.45703125 -24.3046875 17.98046875 C-22.21875 17.94140625 -22.21875 17.94140625 -19.9296875 18.35546875 C-16.43379947 18.88584002 -13.75533383 18.9822693 -10.3046875 17.98046875 C-10.3046875 16.99046875 -10.3046875 16.00046875 -10.3046875 14.98046875 C-10.93117188 14.89410156 -11.55765625 14.80773437 -12.203125 14.71875 C-18.84019225 13.57767692 -18.84019225 13.57767692 -21.0546875 10.73046875 C-21.40491602 6.87795508 -20.50343756 5.14117196 -18.3046875 1.98046875 C-13.17431136 -1.77346501 -5.87521959 -2.59903782 0 0 Z " fill="#FFFFFF" transform="translate(517.3046875,211.01953125)"/>
<path d="M0 0 C2.31 0 4.62 0 7 0 C7.33 5.94 7.66 11.88 8 18 C9.98 18.33 11.96 18.66 14 19 C14.33 12.73 14.66 6.46 15 0 C17.31 0 19.62 0 22 0 C22.13530844 3.06398451 22.2342407 6.12197126 22.3125 9.1875 C22.35439453 10.05181641 22.39628906 10.91613281 22.43945312 11.80664062 C22.52415071 16.22785435 22.44096868 18.36429697 19.859375 22.0859375 C16.54657077 24.30352503 14.883969 24.59216566 10.9375 24.4375 C9.91527344 24.41558594 8.89304688 24.39367187 7.83984375 24.37109375 C5.06778528 24.00885777 3.33167565 23.51316596 1 22 C-0.20029908 19.59940183 -0.11459743 18.10639351 -0.09765625 15.4296875 C-0.09443359 14.53378906 -0.09121094 13.63789063 -0.08789062 12.71484375 C-0.07951172 11.77769531 -0.07113281 10.84054688 -0.0625 9.875 C-0.05798828 8.93011719 -0.05347656 7.98523438 -0.04882812 7.01171875 C-0.03702357 4.67441613 -0.02055759 2.33723939 0 0 Z " fill="#FFFFFF" transform="translate(156,211)"/>
<path d="M0 0 C0.61875 0.33 1.2375 0.66 1.875 1 C0.4375 3.5625 0.4375 3.5625 -2.125 6 C-5.22451089 6.15414974 -8.0918809 5.59139967 -11.125 5 C-11.785 5 -12.445 5 -13.125 5 C-12.32834248 7.14695157 -12.32834248 7.14695157 -10.34765625 7.7109375 C-9.63480469 7.93007812 -8.92195312 8.14921875 -8.1875 8.375 C-5.65782445 9.29405479 -4.32393746 9.79369449 -2.4375 11.75 C-1.91212655 15.53268884 -3.24168366 17.76305004 -5.125 21 C-9.62973579 23.8648539 -13.0883541 24.36248183 -18.375 24.25 C-19.59703125 24.23453125 -20.8190625 24.2190625 -22.078125 24.203125 C-25.125 24 -25.125 24 -27.125 23 C-26.795 21.68 -26.465 20.36 -26.125 19 C-22.10796552 17.93666734 -19.18194996 18.29444349 -15.125 19 C-14.135 18.67 -13.145 18.34 -12.125 18 C-11.795 17.01 -11.465 16.02 -11.125 15 C-13.14322917 14.54427083 -15.16145833 14.08854167 -17.1796875 13.6328125 C-19.125 13 -19.125 13 -21.125 11 C-21.625 8.1875 -21.625 8.1875 -21.125 5 C-15.42044867 -1.57948251 -8.0682437 -2.58183799 0 0 Z " fill="#FFFFFF" transform="translate(623.125,211)"/>
<path d="M0 0 C5.94 0 11.88 0 18 0 C17.67 1.32 17.34 2.64 17 4 C13.7 4 10.4 4 7 4 C7 5.65 7 7.3 7 9 C9.64 9 12.28 9 15 9 C15 10.65 15 12.3 15 14 C12.36 14 9.72 14 7 14 C7 15.65 7 17.3 7 19 C10.63 19 14.26 19 18 19 C18 20.65 18 22.3 18 24 C12.06 24 6.12 24 0 24 C0 16.08 0 8.16 0 0 Z " fill="#FFFFFF" transform="translate(302,211)"/>
<path d="M0 0 C3.83625 -0.12375 3.83625 -0.12375 7.75 -0.25 C8.54889648 -0.28641602 9.34779297 -0.32283203 10.17089844 -0.36035156 C13.65668066 -0.41478947 15.63136999 -0.26661919 18.484375 1.796875 C20.70010456 5.01767776 20.54504673 7.1846729 20 11 C18.625 13.4375 18.625 13.4375 16 15 C12.63939316 15.32131194 9.36437766 15.23114045 6 15 C6 17.97 6 20.94 6 24 C4.02 24 2.04 24 0 24 C0 16.08 0 8.16 0 0 Z M6 4 C6 6.31 6 8.62 6 11 C7.98 10.67 9.96 10.34 12 10 C12.33 8.68 12.66 7.36 13 6 C10.04622502 3.63019987 10.04622502 3.63019987 6 4 Z " fill="#FFFFFF" transform="translate(182,211)"/>
<path d="M0 0 C2.64 0 5.28 0 8 0 C8.66 2.31 9.32 4.62 10 7 C10.32871094 6.4946875 10.65742188 5.989375 10.99609375 5.46875 C14.83495146 0.22543216 14.83495146 0.22543216 18.40234375 -0.46484375 C20.63844091 -0.44011598 22.78627681 -0.30992125 25 0 C21.92996717 3.66906363 18.9177074 7.09881295 15.375 10.3125 C11.35692508 14.21475457 9.70158408 18.74728391 8 24 C5.69 24 3.38 24 1 24 C1.17917969 23.32195312 1.35835938 22.64390625 1.54296875 21.9453125 C3.00124191 15.56426266 3.02286063 11.24383544 0.7265625 5.09375 C0 3 0 3 0 0 Z " fill="#FFFFFF" transform="translate(337,211)"/>
<path d="M0 0 C1.134375 0.020625 2.26875 0.04125 3.4375 0.0625 C1.39886383 8.33306461 -1.38537673 16.16364411 -4.5625 24.0625 C-6.8725 24.0625 -9.1825 24.0625 -11.5625 24.0625 C-7.02228756 0.12319803 -7.02228756 0.12319803 0 0 Z " fill="#FFFFFF" transform="translate(527.5625,210.9375)"/>
</svg>
